<svg xmlns="http://www.w3.org/2000/svg" viewBox="0 0 696.02 165.38"><defs><style>.cls-1{fill:#00192b;}.cls-2{fill:#fe9f1f;}.cls-3{fill:#177ae4;}.cls-4{fill:#32cece;}.cls-5{fill:#e81a76;}</style></defs><title>Asset 1</title><g id="Layer_2" data-name="Layer 2"><g id="Layer_1-2" data-name="Layer 1"><path class="cls-1" d="M223.82,2V33.63h30.75V57.38h-31v48.17c0,10.63,5.88,15.83,14.48,15.83A31.61,31.61,0,0,0,251.41,118l7.69,23.52a61.88,61.88,0,0,1-22.84,4.75c-24.2.9-40-12.89-40-40.71V57.38H175.42V33.63h20.81V4.91Z"/><path class="cls-1" d="M300.71,33.41l2,12.89c8.6-13.8,20.13-15.83,31.44-15.83,11.53,0,22.61,4.52,28.72,10.62l-12.44,24c-5.65-4.75-10.85-7.24-19.9-7.24-14.47,0-27.82,7.69-27.82,28.27v58.8H275.15V33.41Z"/><path class="cls-1" d="M461.73,33.41h26.46V144.9h-26l-1.36-16.28c-6.33,13.11-23.74,19.45-36.18,19.67-33,.23-57.45-20.12-57.45-59.25,0-38.45,25.56-58.57,58.13-58.35,14.92,0,29.17,7,35.5,18.09ZM394.79,89c0,21.26,14.7,33.92,33,33.92,43.43,0,43.43-67.62,0-67.62C409.49,55.34,394.79,67.78,394.79,89Z"/><path class="cls-1" d="M609.63,130.65c-12.89,12.67-26.46,17.64-43,17.64-32.34,0-59.25-19.45-59.25-59s26.91-59,59.25-59c15.83,0,28,4.52,40.25,16.51L589.5,65.07a33.87,33.87,0,0,0-22.39-8.82c-18.54,0-32.11,13.57-32.11,33,0,21.25,14.47,32.56,31.66,32.56,8.82,0,17.64-2.49,24.42-9.27Z"/><path class="cls-1" d="M660.74,2V33.63h30.75V57.38h-31v48.17c0,10.63,5.88,15.83,14.47,15.83A31.61,31.61,0,0,0,688.33,118L696,141.51a61.88,61.88,0,0,1-22.84,4.75c-24.2.9-40-12.89-40-40.71V57.38H612.34V33.63h20.81V4.91Z"/><path class="cls-2" d="M128.77,0h0a31.7,31.7,0,0,1,0,44.83h0L94.5,79.1,73.85,58.46V13.64L94.5,34.27Z"/><path class="cls-3" d="M128.77,68.55,132,71.76a31.7,31.7,0,0,1,0,44.83h0l-3.22-3.21-8.27-8.27L73.85,151.76V106.93L98.09,82.69,120.5,60.28Z"/><path class="cls-4" d="M12.5,165.38h0a31.7,31.7,0,0,1,0-44.83h0L46.77,86.27l20.65,20.65v44.82L46.77,131.11Z"/><path class="cls-5" d="M12.5,96.83,9.28,93.62a31.72,31.72,0,0,1,0-44.83h0L12.5,52l8.27,8.27L67.42,13.62V58.45L43.18,82.69,20.77,105.1Z"/></g></g></svg>